<svg xmlns="http://www.w3.org/2000/svg" viewBox="0 0 314.64 85.01"><defs><style>.cls-1{fill:#4a519f;}.cls-2{fill:#807cb9;}</style></defs><g id="Layer_2" data-name="Layer 2"><g id="Layer_1-2" data-name="Layer 1"><path class="cls-1" d="M293,15.19a7.72,7.72,0,0,0-.78-.83c-.71.67-1.4,1.35-2.06,2a8.94,8.94,0,0,1,.67.71,8.75,8.75,0,0,1,1.25,2c.66-.76,1.34-1.53,2.05-2.28A11.4,11.4,0,0,0,293,15.19Zm-7.66-3.32a13.56,13.56,0,0,0-3.3.4,5.83,5.83,0,0,1,2.11,2.42,7.72,7.72,0,0,1,1,0,7.89,7.89,0,0,1,3.75.83c.68-.71,1.39-1.42,2.11-2.1A9.94,9.94,0,0,0,285.29,11.87Zm9.53,6.55c-.8.84-1.53,1.68-2.23,2.52a9.5,9.5,0,0,1,.21,2,7.36,7.36,0,0,1-2.43,5.64,8.65,8.65,0,0,1-5.89,2.33,8,8,0,0,1-1.78-.18,7.67,7.67,0,0,1-1.78-.55,8.86,8.86,0,0,1-2.39-1.6,7.74,7.74,0,0,1-2.45-5.71,7.34,7.34,0,0,1,1.74-4.81.3.3,0,0,1-.06-.11c-.32-.69-.85-1.52-1.54-1.7a2.74,2.74,0,0,1-.38-.15,10,10,0,0,0-2.59,6.8,10.43,10.43,0,0,0,3.26,7.65,11.65,11.65,0,0,0,15.87,0A9.88,9.88,0,0,0,295.64,23,12.82,12.82,0,0,0,294.82,18.42Zm-14.22-5a4.11,4.11,0,0,0-1.92.25,12.18,12.18,0,0,0-1.62,1.21,4.3,4.3,0,0,1,1.9,2,8.79,8.79,0,0,1,3.49-1.9A3,3,0,0,0,280.6,13.44Z"/><path class="cls-2" d="M280.92,30.21a7.67,7.67,0,0,0,1.78.55,1.47,1.47,0,0,1-.5.09,1.54,1.54,0,0,1-.74-.19A1.8,1.8,0,0,1,280.92,30.21Z"/><path class="cls-2" d="M314.64,1.47a68.67,68.67,0,0,0-16.3,11.23c-1.52,1.38-2.94,2.76-4.26,4.16-.71.75-1.39,1.52-2.05,2.28a52.9,52.9,0,0,0-5.71,8.07l-1.27.57a23.41,23.41,0,0,0-2.85,1.49,18.36,18.36,0,0,0-.52-3.17l-.34-1.57a38.07,38.07,0,0,0-2.16-7.24l-.22-.41a4.3,4.3,0,0,0-1.9-2,3.58,3.58,0,0,0-.43-.15,10.08,10.08,0,0,1,2.05-1.06,4.11,4.11,0,0,1,1.92-.25A3,3,0,0,1,282.45,15a18.83,18.83,0,0,1,1.9,5l.59,2.22a75.27,75.27,0,0,1,5.17-5.83c.66-.69,1.35-1.37,2.06-2A74.85,74.85,0,0,1,298.52,9,64.21,64.21,0,0,1,314.1,0Z"/><path class="cls-2" d="M314.1,0a64.21,64.21,0,0,0-15.58,9,74.85,74.85,0,0,0-6.35,5.41c-.71.67-1.4,1.35-2.06,2a75.27,75.27,0,0,0-5.17,5.83L284.35,20a18.83,18.83,0,0,0-1.9-5,3,3,0,0,0-1.85-1.54,4.11,4.11,0,0,0-1.92.25,10.08,10.08,0,0,0-2.05,1.06,3.58,3.58,0,0,1,.43.15,4.3,4.3,0,0,1,1.9,2l.22.41a38.07,38.07,0,0,1,2.16,7.24l.34,1.57a18.36,18.36,0,0,1,.52,3.17,23.41,23.41,0,0,1,2.85-1.49l1.27-.57A52.9,52.9,0,0,1,292,19.14c.66-.76,1.34-1.53,2.05-2.28,1.32-1.4,2.74-2.78,4.26-4.16a68.67,68.67,0,0,1,16.3-11.23Z"/><path class="cls-1" d="M22.38,28H14.49A44.87,44.87,0,0,0,0,30.23l1-5.92q1-5.93,8.38-5.92H48.52q7.41,0,8.37,5.92l1,5.92A48,48,0,0,0,43,28H34.9V56.13q0,11,.24,17c.16,4,.24,6.74.24,8.09a1.64,1.64,0,0,1-1,1.49c-.69.36-2.59.53-5.7.53s-5-.17-5.68-.53a1.63,1.63,0,0,1-1.06-1.49c0-1.35.08-4,.24-8.09s.24-9.72.24-17Z"/><path class="cls-1" d="M82.12,85q-4.34,0-4.82-6.74a21.07,21.07,0,0,1-13.19,4.91,19.34,19.34,0,0,1-13.4-5.27q-5.8-5.28-5.8-14.71A22.56,22.56,0,0,1,51.31,47q6.4-6.68,18.44-6.67a54.5,54.5,0,0,1,18.53,3.08V70.42a28.37,28.37,0,0,0,2.45,11.36Q85.72,85,82.12,85ZM68.54,74.9a12.49,12.49,0,0,0,8.28-3.13V49.87a20.74,20.74,0,0,0-9.24-2.07q-10.44,0-10.45,13,0,7,3.3,10.55A10.63,10.63,0,0,0,68.54,74.9Z"/><path class="cls-1" d="M113.55,83.18a31.39,31.39,0,0,1-16.42-4.24q1-7,5.2-7A12.89,12.89,0,0,1,107,73.43a17,17,0,0,0,7.22,1.47q5.63,0,5.63-4.14t-10.3-7q-10.3-2.8-10.3-10.8A10.8,10.8,0,0,1,104,43.61a20.49,20.49,0,0,1,12.06-3.37A31.44,31.44,0,0,1,129.57,43q-.48,7.78-4.18,7.79a10.43,10.43,0,0,1-3.78-1.32,13.56,13.56,0,0,0-6.09-1.32q-5.73,0-5.73,4,0,3.57,10.3,6.5t10.3,10.78a12.71,12.71,0,0,1-4.52,9.6Q121.34,83.18,113.55,83.18Z"/><path class="cls-1" d="M151.19,58.34q13.23-6.26,14.1-14.25.33-3.27,7.7-3.27a10.17,10.17,0,0,1,6.59,1.92q-3,11.5-18,17.67,15.21,8,19,20.65A11.71,11.71,0,0,1,174,83c-4.17,0-6.71-1.3-7.6-3.9q-3.9-10.87-15.21-15.4V82.5H139.88v-60a22.61,22.61,0,0,0-.46-4.62A11.39,11.39,0,0,0,138,14.11a10.16,10.16,0,0,1,7.12-2.56q6.12,0,6.12,6.07Z"/><path class="cls-1" d="M222.62,85q-4.34,0-4.82-6.74a21.07,21.07,0,0,1-13.19,4.91,19.34,19.34,0,0,1-13.4-5.27q-5.81-5.28-5.8-14.71A22.56,22.56,0,0,1,191.81,47q6.41-6.68,18.44-6.67a54.5,54.5,0,0,1,18.53,3.08V70.42a28.37,28.37,0,0,0,2.45,11.36Q226.22,85,222.62,85ZM209,74.9a12.49,12.49,0,0,0,8.28-3.13V49.87a20.74,20.74,0,0,0-9.24-2.07q-10.44,0-10.45,13,0,7,3.3,10.55A10.63,10.63,0,0,0,209,74.9Z"/><path class="cls-1" d="M259.39,83.18a15.39,15.39,0,0,1-10.66-3.81,12.27,12.27,0,0,1-4.26-9.57V49.05H237.2q.68-6.49,7.56-6.69l1-7q.92-7,10.2-10v16.8l14.59-.39q-.72,7.41-7.41,7.41l-7.18,0V67.63a7.52,7.52,0,0,0,1.66,5.29,5.27,5.27,0,0,0,4,1.79,6.93,6.93,0,0,0,3.89-1.18,5.8,5.8,0,0,1,3-1.18c1.76,0,3.37,1.47,4.81,4.42Q267.28,83.18,259.39,83.18Z"/><path class="cls-1" d="M278.11,82.5V52.37A18.26,18.26,0,0,0,276.33,44a8.27,8.27,0,0,1,6.89-3C287.07,41,289,43,289,47V82.5Z"/></g></g></svg>